<?xml version="1.0" standalone="no"?><!DOCTYPE svg PUBLIC "-//W3C//DTD SVG 1.1//EN" "http://www.w3.org/Graphics/SVG/1.1/DTD/svg11.dtd"><svg t="1574216610066" class="icon" viewBox="0 0 1024 1024" version="1.1" xmlns="http://www.w3.org/2000/svg" p-id="1945" xmlns:xlink="http://www.w3.org/1999/xlink" width="200" height="200"><defs><style type="text/css"></style></defs><path d="M32.321058 1023.900012h-0.699915C14.223267 1023.900012 0.025 1009.701745 0.025 992.203881V671.543025C0.025 654.245136 14.223267 639.946881 31.721131 639.946881h0.699914c17.397876 0 31.696131 14.298255 31.696131 31.696131v320.660857c-0.099988 17.397876-14.298255 31.596143-31.796118 31.596143z" fill="#ffffff" p-id="1946"></path><path d="M383.978131 991.603955v0.699914c0 17.397876-14.298255 31.696131-31.696131 31.696131H31.721131C14.223267 1023.900012 0.025 1009.701745 0.025 992.203881v-0.699914C0.025 974.206078 14.223267 959.907824 31.721131 959.907824h320.660857c17.397876 0 31.596143 14.298255 31.596143 31.696131z" fill="#ffffff" p-id="1947"></path><path d="M9.723816 1014.701135l-0.499939-0.499939c-12.298499-12.298499-12.298499-32.496033 0-44.794532l294.564043-294.564042c12.298499-12.298499 32.496033-12.298499 44.794531 0l0.499939 0.499939c12.298499 12.298499 12.298499 32.496033 0 44.794532L54.518348 1014.701135c-12.298499 12.298499-32.496033 12.298499-44.794532 0z" fill="#ffffff" p-id="1948"></path><path d="M32.321058 0.024997h-0.699915C14.223267 0.024997 0.025 14.223264 0.025 31.721128v320.660857C0.025 369.779861 14.223267 383.978128 31.721131 383.978128h0.699914c17.397876 0 31.696131-14.298255 31.696131-31.696131V31.721128C64.017188 14.223264 49.818922 0.024997 32.321058 0.024997z" fill="#ffffff" p-id="1949"></path><path d="M383.978131 32.321055v-0.699915C383.978131 14.223264 369.779864 0.024997 352.282 0.024997H31.721131C14.223267 0.024997 0.025 14.223264 0.025 31.721128v0.699914C0.025 49.818919 14.223267 64.017185 31.721131 64.017185h320.660857c17.397876 0 31.596143-14.198267 31.596143-31.69613z" fill="#ffffff" p-id="1950"></path><path d="M9.723816 9.223874l-0.499939 0.499939C-3.074622 22.022312-3.074622 42.219846 9.223877 54.518345l294.564043 294.564042c12.298499 12.298499 32.496033 12.298499 44.794531 0l0.499939-0.499939c12.298499-12.298499 12.298499-32.496033 0-44.794531L54.518348 9.223874C42.219849-3.074625 22.022315-3.074625 9.723816 9.223874z" fill="#ffffff" p-id="1951"></path><path d="M991.603958 1023.900012h0.699914c17.397876 0 31.696131-14.298255 31.696131-31.696131V671.643012c0-17.397876-14.298255-31.696131-31.696131-31.696131h-0.699914c-17.397876 0-31.696131 14.298255-31.696131 31.696131v320.660857c0 17.397876 14.298255 31.596143 31.696131 31.596143z" fill="#ffffff" p-id="1952"></path><path d="M639.946885 991.603955v0.699914c0 17.397876 14.298255 31.696131 31.69613 31.696131h320.660857c17.397876 0 31.696131-14.298255 31.696131-31.696131v-0.699914c0-17.397876-14.298255-31.696131-31.696131-31.696131H671.643015c-17.397876 0-31.696131 14.298255-31.69613 31.696131z" fill="#ffffff" p-id="1953"></path><path d="M1014.201199 1014.701135l0.499939-0.499939c12.298499-12.298499 12.298499-32.496033 0-44.794532L720.037108 674.842622c-12.298499-12.298499-32.496033-12.298499-44.794532 0l-0.499939 0.499939c-12.298499 12.298499-12.298499 32.496033 0 44.794532l294.564042 294.564042c12.398487 12.298499 32.596021 12.298499 44.89452 0z" fill="#ffffff" p-id="1954"></path><path d="M991.603958 0.024997h0.699914c17.397876 0 31.696131 14.198267 31.696131 31.696131v320.660857c0 17.397876-14.298255 31.696131-31.696131 31.69613h-0.699914c-17.397876 0-31.696131-14.298255-31.696131-31.69613V31.721128C959.907827 14.223264 974.206081 0.024997 991.603958 0.024997z" fill="#ffffff" p-id="1955"></path><path d="M639.946885 32.321055v-0.699915C639.946885 14.223264 654.245139 0.024997 671.643015 0.024997h320.660857c17.397876 0 31.696131 14.198267 31.696131 31.696131v0.699914c0 17.397876-14.298255 31.696131-31.696131 31.696131H671.643015C654.245139 64.017185 639.946885 49.818919 639.946885 32.321055z" fill="#ffffff" p-id="1956"></path><path d="M1014.201199 9.223874l0.499939 0.499939c12.298499 12.298499 12.298499 32.496033 0 44.794532L720.037108 349.082387c-12.298499 12.298499-32.496033 12.298499-44.794532 0l-0.499939-0.499939c-12.298499-12.298499-12.298499-32.496033 0-44.794531L969.406667 9.223874c12.298499-12.298499 32.496033-12.298499 44.794532 0z" fill="#ffffff" p-id="1957"></path></svg>