<?xml version="1.0" standalone="no"?><!DOCTYPE svg PUBLIC "-//W3C//DTD SVG 1.1//EN" "http://www.w3.org/Graphics/SVG/1.1/DTD/svg11.dtd"><svg t="1562922099746" class="icon" viewBox="0 0 1024 1024" version="1.1" xmlns="http://www.w3.org/2000/svg" p-id="10807" xmlns:xlink="http://www.w3.org/1999/xlink" width="200" height="200"><defs><style type="text/css"></style></defs><path d="M149.328 882.896a381.336 81.488 0 1 0 762.672 0 381.336 81.488 0 1 0-762.672 0Z" fill="#B8CBCD" p-id="10808"></path><path d="M292.968 441.232c0-86.336 80.856-151.344 171.992-151.344H588.8c91.136 0 165.12 68.432 165.12 154.768v187.752c0 126.192-102.304 228.496-228.496 228.496-126.192 0-232.448-100.832-232.448-227.032v-192.64z" fill="#B2EDA6" p-id="10809"></path><path d="M525.416 876.896c-137 0-248.448-109.024-248.448-243.032V441.232c0-92.272 84.336-167.344 187.992-167.344H588.8c99.864 0 181.12 76.6 181.12 170.768v187.752c-0.008 134.808-109.688 244.488-244.504 244.488zM464.96 305.888c-86.016 0-155.992 60.72-155.992 135.344v192.632c0 116.36 97.096 211.032 216.448 211.032 117.168 0 212.496-95.32 212.496-212.496V444.656c0-76.512-66.888-138.768-149.12-138.768H464.96z" fill="#3C663E" p-id="10810"></path><path d="M525.416 841.4c-141.408 0-256.448-112.608-256.448-251.032a24 24 0 1 1 48 0c0 111.952 93.512 203.032 208.448 203.032 112.76 0 204.496-91.736 204.496-204.496a24 24 0 1 1 48 0c0 139.232-113.264 252.496-252.496 252.496z" fill="#3C663E" p-id="10811"></path><path d="M528 870.024a16 16 0 0 1-16-16V620.112a16 16 0 0 1 32 0v233.912a16 16 0 0 1-16 16z" fill="#3C663E" p-id="10812"></path><path d="M528 636.112a16 16 0 0 1-16-16c0-74.552 105.424-132.952 240-132.952a16 16 0 0 1 0 32c-112.752 0-208 46.232-208 100.952a16 16 0 0 1-16 16z" fill="#3C663E" p-id="10813"></path><path d="M528 633.4a16 16 0 0 1-16-16c0-53.248-97.152-98.24-212.152-98.24a16 16 0 0 1 0-32C439.04 487.152 544 543.152 544 617.4a16 16 0 0 1-16 16z" fill="#3C663E" p-id="10814"></path><path d="M355.616 335.768a54.768 54.768 0 0 1 0-77.448l58.088-58.096a54.784 54.784 0 0 1 77.448 0c1.72 1.728 6.76 5.216 8.2 7.104h41.28c1.44-1.88 4.936-5.376 6.648-7.104a54.784 54.784 0 0 1 77.448 0l58.088 58.096a54.736 54.736 0 0 1 0 77.448s-74.936 29.8-164.376 29.8c-89.424-0.008-162.824-29.8-162.824-29.8z" fill="#B2EDA6" p-id="10815"></path><path d="M518.456 381.56c-91.504 0-165.736-29.712-168.856-30.968a16.04 16.04 0 0 1-5.296-3.512c-27.576-27.592-27.576-72.48 0-100.072l58.096-58.096c13.368-13.36 31.136-20.72 50.032-20.72s36.664 7.36 50.032 20.712c0.384 0.344 1.16 0.936 1.968 1.576l1.056 0.84h28.104c0.72-0.744 1.456-1.48 2.192-2.208 13.568-13.56 31.336-20.92 50.232-20.92a70.32 70.32 0 0 1 50.04 20.72l58.088 58.096a70.264 70.264 0 0 1 20.736 50.032c0 18.904-7.36 36.672-20.736 50.04a15.936 15.936 0 0 1-5.4 3.552c-3.184 1.264-78.84 30.928-170.288 30.928z m-153.648-59.408c14.736 5.448 78.8 27.416 153.648 27.416 74.912 0 140.184-22 155.224-27.456a38.48 38.48 0 0 0 9.192-25.072c0-10.344-4.032-20.08-11.36-27.408l-58.088-58.096a38.544 38.544 0 0 0-27.416-11.344 38.496 38.496 0 0 0-27.408 11.352c-2.968 2.968-4.688 4.784-5.272 5.52a16.4 16.4 0 0 1-12.688 6.256h-41.28a15.984 15.984 0 0 1-12.168-5.616c-0.72-0.664-1.728-1.432-2.664-2.168a63.264 63.264 0 0 1-4.688-4.008c-7.304-7.304-17.04-11.336-27.4-11.336s-20.088 4.032-27.408 11.352l-58.088 58.088a38.808 38.808 0 0 0-2.136 52.52z" fill="#3C663E" p-id="10816"></path><path d="M518.456 417.4c-93.056 0-168.688-30.272-171.864-31.56a24 24 0 0 1 18.056-44.464c0.672 0.264 70.488 28.032 153.808 28.032 83.864 0 154.8-27.824 155.504-28.104a24.008 24.008 0 0 1 17.728 44.608c-3.224 1.272-80.264 31.488-173.232 31.488z" fill="#FFFFFF" p-id="10817"></path><path d="M525.416 884.896C385.68 884.896 272 772.08 272 633.4v-192c0-43.944 15.816-80.6 48.216-111.512-10.232-29.944-3.552-66.576 18.432-88.544l58.08-58.088a78.28 78.28 0 0 1 55.696-23.064 78.24 78.24 0 0 1 55.688 23.056c0.016 0 0.056 0.024 0.128 0.08h22l0.008-0.008a78.32 78.32 0 0 1 55.752-23.128 78.24 78.24 0 0 1 55.696 23.056l58.088 58.104c19.744 19.72 27.408 52.904 20.616 81.312 38.168 33.544 57.504 74.512 57.504 121.992v187.752c0.008 139.224-113.256 252.488-252.488 252.488z m-72.984-676.704a30.56 30.56 0 0 0-21.76 9.008l-58.08 58.088c-10.584 10.568-12.184 34.064-3.184 46.552a23.992 23.992 0 0 1-4.608 32.872c-30.984 24.44-44.8 51.168-44.8 86.68v192c0 112.208 92.152 203.504 205.416 203.504 112.76 0 204.496-91.736 204.496-204.496V444.656c0-37.568-17.12-68.624-52.32-94.952a23.984 23.984 0 0 1-6.616-30.864c6.92-12.48 4.392-34.04-5.112-43.536l-58.096-58.104c-11.6-11.6-31.88-11.624-43.512 0.008-1.208 1.208-3.504 3.448-4.704 4.896a23.536 23.536 0 0 1-18.912 9.224h-41.28a23.992 23.992 0 0 1-17.816-7.92c-0.6-0.512-1.32-1.072-2-1.608a74.16 74.16 0 0 1-5.376-4.616 30.552 30.552 0 0 0-21.736-8.992z" fill="#3C663E" p-id="10818"></path><path d="M624.744 224.224a24 24 0 1 1 0-48c31.44 0 57.016-32.344 57.016-72.096a24 24 0 1 1 48 0c0 66.224-47.112 120.096-105.016 120.096zM416.808 224.224c-57.904 0-105.008-53.872-105.008-120.096a24 24 0 1 1 48 0c0 39.752 25.576 72.096 57.008 72.096a24 24 0 1 1 0 48zM758.696 492.768a24.016 24.016 0 0 1-8.904-46.296l116.224-46.416c-30.832-43.976-87.104-137.336-87.104-233.048a24 24 0 1 1 48 0c0 111.544 94.616 227.256 95.568 228.408a24 24 0 0 1-9.584 37.6l-145.312 58.032a24 24 0 0 1-8.888 1.72zM295.992 492.768a23.84 23.84 0 0 1-8.888-1.72l-145.32-58.032a23.992 23.992 0 0 1-9.576-37.608c0.944-1.152 95.568-116.856 95.568-228.4a24 24 0 1 1 48 0c0 95.712-56.264 189.072-87.104 233.048l116.232 46.416a24 24 0 0 1-8.912 46.296z" fill="#3C663E" p-id="10819"></path><path d="M912.144 785.376a24 24 0 0 1-24-24V582.136l-142.112-49.424a24.008 24.008 0 0 1 15.76-45.344l158.224 55.032a24.016 24.016 0 0 1 16.12 22.672v196.304a23.984 23.984 0 0 1-23.992 24zM136 785.4a24 24 0 0 1-24-24V565.096c0-10.216 6.472-19.312 16.12-22.672l158.232-55.032a24 24 0 0 1 15.768 45.344L160 582.152v179.24a24 24 0 0 1-24 24.008z" fill="#3C663E" p-id="10820"></path><path d="M797.032 898.672a24.016 24.016 0 0 1-23.264-29.968l37.224-145.176-74.896-149.776a24.008 24.008 0 0 1 10.736-32.2 24.032 24.032 0 0 1 32.2 10.736l78.904 157.792c2.576 5.168 3.208 11.096 1.784 16.696l-39.456 153.856a24 24 0 0 1-23.232 18.04zM249.848 898.672a24 24 0 0 1-23.232-18.048l-39.448-153.856c-1.44-5.6-0.808-11.52 1.784-16.696l78.896-157.792a23.992 23.992 0 1 1 42.928 21.464L235.888 723.52l37.224 145.176a24 24 0 0 1-23.264 29.976zM518.456 381.56c-91.504 0-165.736-29.712-168.856-30.968a16.04 16.04 0 0 1-5.296-3.512c-27.576-27.592-27.576-72.48 0-100.072l58.096-58.096c13.368-13.36 31.136-20.72 50.032-20.72s36.664 7.36 50.032 20.712c0.384 0.344 1.16 0.936 1.968 1.576l1.056 0.84h28.104c0.72-0.744 1.456-1.48 2.192-2.208 13.568-13.56 31.336-20.92 50.232-20.92a70.32 70.32 0 0 1 50.04 20.72l58.088 58.096a70.264 70.264 0 0 1 20.736 50.032c0 18.904-7.36 36.672-20.736 50.04a15.936 15.936 0 0 1-5.4 3.552c-3.184 1.264-78.84 30.928-170.288 30.928z m-153.648-59.408c14.736 5.448 78.8 27.416 153.648 27.416 74.912 0 140.184-22 155.224-27.456a38.48 38.48 0 0 0 9.192-25.072c0-10.344-4.032-20.08-11.36-27.408l-58.088-58.096a38.544 38.544 0 0 0-27.416-11.344 38.496 38.496 0 0 0-27.408 11.352c-2.968 2.968-4.688 4.784-5.272 5.52a16.4 16.4 0 0 1-12.688 6.256h-41.28a15.984 15.984 0 0 1-12.168-5.616c-0.72-0.664-1.728-1.432-2.664-2.168a63.264 63.264 0 0 1-4.688-4.008c-7.304-7.304-17.04-11.336-27.4-11.336s-20.088 4.032-27.408 11.352l-58.088 58.088a38.808 38.808 0 0 0-2.136 52.52z" fill="#3C663E" p-id="10821"></path></svg>