<?xml version="1.0" standalone="no"?><!DOCTYPE svg PUBLIC "-//W3C//DTD SVG 1.1//EN" "http://www.w3.org/Graphics/SVG/1.1/DTD/svg11.dtd"><svg t="1562921843256" class="icon" viewBox="0 0 1031 1024" version="1.1" xmlns="http://www.w3.org/2000/svg" p-id="6382" xmlns:xlink="http://www.w3.org/1999/xlink" width="201.3671875" height="200"><defs><style type="text/css"></style></defs><path d="M946.9 765.9H84.69999999999999c-46.6 0-84.7-38.1-84.7-84.7V127.39999999999998c0-46.6 38.1-84.7 84.7-84.7h862.1999999999999c46.6 0 84.7 38.1 84.7 84.7v553.8c0 46.6-38.1 84.7-84.7 84.7z" fill="#E3E3E3" p-id="6383"></path><path d="M946.9 991.5H84.69999999999999c-46.6 0-84.7-38.1-84.7-84.7V268.4H1031.5v638.5c0.1 46.5-38 84.6-84.6 84.6z" fill="#475762" p-id="6384"></path><path d="M185.47431182861328 234.0630645751953m-22.170066833496094 0a22.170066833496094 22.170066833496094 0 1 0 44.34013366699219 0 22.170066833496094 22.170066833496094 0 1 0-44.34013366699219 0Z" fill="#CACACA" p-id="6385"></path><path d="M248.8173599243164 234.0630645751953m-22.170066833496094 0a22.170066833496094 22.170066833496094 0 1 0 44.34013366699219 0 22.170066833496094 22.170066833496094 0 1 0-44.34013366699219 0Z" fill="#CACACA" p-id="6386"></path><path d="M312.16040802001953 234.0630645751953m-22.170066833496094 0a22.170066833496094 22.170066833496094 0 1 0 44.34013366699219 0 22.170066833496094 22.170066833496094 0 1 0-44.34013366699219 0Z" fill="#CACACA" p-id="6387"></path><path d="M233.7540740966797 409.87864685058594h-33.293724060058594c-10.042190551757812 0-18.230438232421875-8.188247680664062-18.230438232421875-18.230438232421875 0-10.042190551757812 8.188247680664062-18.230438232421875 18.230438232421875-18.230438232421875h33.293724060058594c10.042190551757812 0 18.230438232421875 8.188247680664062 18.230438232421875 18.230438232421875 0 10.042190551757812-8.188247680664062 18.230438232421875-18.230438232421875 18.230438232421875z" fill="#CACACA" p-id="6388"></path><path d="M309.7 379.8h-70.7c-13 0-23.6-10.6-23.6-23.6 0-13 10.6-23.6 23.6-23.6h70.7c13 0 23.6 10.6 23.6 23.6 0 13-10.6 23.6-23.6 23.6zM332.3 469h-34.3c-13 0-23.6-10.6-23.6-23.6 0-13 10.6-23.6 23.6-23.6h34.3c13 0 23.6 10.6 23.6 23.6 0 13-10.7 23.6-23.6 23.6zM384.6 558.2h-32.8c-13 0-23.6-10.6-23.6-23.6 0-13 10.6-23.6 23.6-23.6h32.8c13 0 23.6 10.6 23.6 23.6 0 13-10.7 23.6-23.6 23.6z" fill="#F26397" p-id="6389"></path><path d="M597.3586196899414 547.6884002685547H480.0967330932617c-10.042190551757812 0-18.230438232421875-8.188247680664062-18.230438232421875-18.230438232421875 0-10.042190551757812 8.188247680664062-18.230438232421875 18.230438232421875-18.230438232421875H597.3586196899414c10.042190551757812 0 18.230438232421875 8.188247680664062 18.230438232421875 18.230438232421875-0.07724761962890625 10.042190551757812-8.265495300292969 18.230438232421875-18.230438232421875 18.230438232421875z" fill="#6ACEB1" p-id="6390"></path><path d="M785.2 558.2h-63.6c-13 0-23.6-10.6-23.6-23.6 0-13 10.6-23.6 23.6-23.6h63.6c13 0 23.6 10.6 23.6 23.6 0 13-10.6 23.6-23.6 23.6zM924.7 640.2H777c-13 0-23.6-10.6-23.6-23.6 0-13 10.6-23.6 23.6-23.6h147.7c13 0 23.6 10.6 23.6 23.6 0 12.9-10.7 23.6-23.6 23.6zM775 736.6h-70.7c-13 0-23.6-10.6-23.6-23.6 0-13 10.6-23.6 23.6-23.6h70.7c13 0 23.6 10.6 23.6 23.6 0 13-10.7 23.6-23.6 23.6zM693.2 825.8H622.5c-13 0-23.6-10.6-23.6-23.6 0-13 10.6-23.6 23.6-23.6h70.7c13 0 23.6 10.6 23.6 23.6 0 13-10.6 23.6-23.6 23.6zM924.7 558.2h-63.6c-13 0-23.6-10.6-23.6-23.6 0-13 10.6-23.6 23.6-23.6h63.6c13 0 23.6 10.6 23.6 23.6 0 13-10.7 23.6-23.6 23.6zM917 736.6H896.5c-13 0-23.6-10.6-23.6-23.6 0-13 10.6-23.6 23.6-23.6h20.5c13 0 23.6 10.6 23.6 23.6 0 13-10.6 23.6-23.6 23.6z" fill="#5F7786" p-id="6391"></path><path d="M575.3 469H423.5c-13 0-23.6-10.6-23.6-23.6 0-13 10.6-23.6 23.6-23.6h151.8c13 0 23.6 10.6 23.6 23.6 0 13-10.6 23.6-23.6 23.6zM622.5 640.2H470.7c-13 0-23.6-10.6-23.6-23.6 0-13 10.6-23.6 23.6-23.6H622.5c13 0 23.6 10.6 23.6 23.6-0.1 12.9-10.7 23.6-23.6 23.6zM622.5 736.6H470.7c-13 0-23.6-10.6-23.6-23.6 0-13 10.6-23.6 23.6-23.6H622.5c13 0 23.6 10.6 23.6 23.6-0.1 13-10.7 23.6-23.6 23.6zM507.6 825.8h-36.9c-13 0-23.6-10.6-23.6-23.6 0-13 10.6-23.6 23.6-23.6h36.9c13 0 23.6 10.6 23.6 23.6 0 13-10.6 23.6-23.6 23.6z" fill="#6ACEB1" p-id="6392"></path><path d="M418.68487548828125 616.5932769775391h-26.495933532714844c-10.042190551757812 0-18.230438232421875-8.188247680664062-18.230438232421875-18.230438232421875 0-10.042190551757812 8.188247680664062-18.230438232421875 18.230438232421875-18.230438232421875h26.495933532714844c10.042190551757812 0 18.230438232421875 8.188247680664062 18.230438232421875 18.230438232421875 0 10.042190551757812-8.188247680664062 18.230438232421875-18.230438232421875 18.230438232421875zM418.68487548828125 685.4981536865234h-26.495933532714844c-10.042190551757812 0-18.230438232421875-8.188247680664062-18.230438232421875-18.230438232421875 0-10.042190551757812 8.188247680664062-18.230438232421875 18.230438232421875-18.230438232421875h26.495933532714844c10.042190551757812 0 18.230438232421875 8.188247680664062 18.230438232421875 18.230438232421875 0 10.042190551757812-8.188247680664062 18.230438232421875-18.230438232421875 18.230438232421875zM378.7478561401367 754.4030303955078h-32.057762145996094c-10.042190551757812 0-18.230438232421875-8.188247680664062-18.230438232421875-18.230438232421875 0-10.042190551757812 8.188247680664062-18.230438232421875 18.230438232421875-18.230438232421875H378.7478561401367c10.042190551757812 0 18.230438232421875 8.188247680664062 18.230438232421875 18.230438232421875-0.07724761962890625 10.042190551757812-8.265495300292969 18.230438232421875-18.230438232421875 18.230438232421875zM351.78843688964844 819.368278503418h-54.61406707763672c-10.042190551757812 0-18.230438232421875-8.188247680664062-18.230438232421875-18.230438232421875 0-10.042190551757812 8.188247680664062-18.230438232421875 18.230438232421875-18.230438232421875h54.61406707763672c10.042190551757812 0 18.230438232421875 8.188247680664062 18.230438232421875 18.230438232421875 0 10.042190551757812-8.188247680664062 18.230438232421875-18.230438232421875 18.230438232421875z" fill="#F26397" p-id="6393"></path><path d="M151.8 469h-43.1c-13 0-23.6-10.6-23.6-23.6 0-13 10.6-23.6 23.6-23.6h43.1c13 0 23.6 10.6 23.6 23.6 0 13-10.6 23.6-23.6 23.6zM151.8 558.2h-43.1c-13 0-23.6-10.6-23.6-23.6 0-13 10.6-23.6 23.6-23.6h43.1c13 0 23.6 10.6 23.6 23.6 0 13-10.6 23.6-23.6 23.6zM151.8 647.4h-43.1c-13 0-23.6-10.6-23.6-23.6 0-13 10.6-23.6 23.6-23.6h43.1c13 0 23.6 10.6 23.6 23.6 0 13-10.6 23.6-23.6 23.6zM151.8 736.6h-43.1c-13 0-23.6-10.6-23.6-23.6 0-13 10.6-23.6 23.6-23.6h43.1c13 0 23.6 10.6 23.6 23.6 0 13-10.6 23.6-23.6 23.6zM151.8 825.8h-43.1c-13 0-23.6-10.6-23.6-23.6 0-13 10.6-23.6 23.6-23.6h43.1c13 0 23.6 10.6 23.6 23.6 0 13-10.6 23.6-23.6 23.6zM151.8 915h-43.1c-13 0-23.6-10.6-23.6-23.6 0-13 10.6-23.6 23.6-23.6h43.1c13 0 23.6 10.6 23.6 23.6 0 13-10.6 23.6-23.6 23.6z" fill="#CACACA" p-id="6394"></path></svg>